# xmcd
#
# Track frame offsets: 
#        150
#        16355
#        37785
#        53632
#        71237
#        90547
#        106992
#        125445
#        141172
#        157610
#        182268
#
# Disc length: 2537 seconds
#
# Revision: 0
# Processed by: cddbd v1.5.2PL0 Copyright (c) Steve Scherf et al.
# Submitted via: ExactAudioCopy v0.95b4
#
DISCID=7f09e70b
DTITLE=Restless Heart - Big Dreams - The Encore Collection
DYEAR=1997
DGENRE=Country
TTITLE0=Big Dreams In A Small Town
TTITLE1=The Bluest Eyes In Texas
TTITLE2=That Rock Won't Roll
TTITLE3=Long Lost Friend
TTITLE4=Tell Me What You Dream
TTITLE5=When Somebody Loves You
TTITLE6=Say What's In Your Heart
TTITLE7=I Want Everyone To Cry
TTITLE8=Let The Heartache Ride
TTITLE9=Hummingbird
TTITLE10=Data
EXTD=
EXTT0=
EXTT1=
EXTT2=
EXTT3=
EXTT4=
EXTT5=
EXTT6=
EXTT7=
EXTT8=
EXTT9=
EXTT10=
PLAYORDER=
